<?xml version="1.0" encoding="iso-8859-1"?>
<!-- Generator: Adobe Illustrator 19.0.0, SVG Export Plug-In . SVG Version: 6.00 Build 0)  -->
<svg version="1.1" id="Layer_1" xmlns="http://www.w3.org/2000/svg" xmlns:xlink="http://www.w3.org/1999/xlink" x="0px" y="0px"
	 viewBox="0 0 510.67 510.67" style="enable-background:new 0 0 510.67 510.67;" xml:space="preserve">
<g>
	<rect x="110.527" y="87.182" style="fill:#FFD46A;" width="89.414" height="193.358"/>
	<rect x="331.267" y="87.182" style="fill:#FFD46A;" width="89.414" height="193.358"/>
	<path style="fill:#4CC7BB;" d="M58.536,392.756l26.96-26.96c4.744-4.744,12.437-4.745,17.183,0
		c4.744,4.745,4.744,12.438-0.001,17.183L58.536,427.12v52.613l43.572-43.572c4.746-4.744,12.438-4.745,17.184,0
		c4.744,4.745,4.744,12.438,0,17.183l-43.063,43.062h49.857l43.834-43.834c4.746-4.745,12.438-4.745,17.183,0
		s4.745,12.438,0.001,17.183l-26.651,26.652h93.697V34.335H58.536V392.756z M86.227,75.032c0-6.71,5.44-12.15,12.15-12.15h113.715
		c6.71,0,12.15,5.439,12.15,12.15V292.69c0,6.71-5.44,12.15-12.15,12.15H98.377c-6.71,0-12.15-5.439-12.15-12.15V75.032z"/>
	<path style="fill:#4CC7BB;" d="M474.063,34.335H278.45v462.07h195.613L474.063,34.335L474.063,34.335z M376.257,440.161
		c-23.116,0-41.924-18.807-41.924-41.923s18.808-41.923,41.924-41.923c23.117,0,41.925,18.807,41.925,41.923
		S399.374,440.161,376.257,440.161z M444.981,292.689c0,6.71-5.44,12.15-12.15,12.15H319.116c-6.71,0-12.15-5.439-12.15-12.15
		V75.032c0-6.71,5.44-12.15,12.15-12.15h113.715c6.71,0,12.15,5.439,12.15,12.15V292.689z"/>
	<g>
		<path d="M475.249,510.67H35.421c-6.71,0-12.15-5.439-12.15-12.15V12.15c0-6.71,5.44-12.15,12.15-12.15h439.828
			c6.71,0,12.15,5.439,12.15,12.15v486.37C487.399,505.23,481.959,510.67,475.249,510.67z M267.485,486.37h195.613V24.3H267.485
			V486.37z M149.486,486.37h93.698V24.3H47.571v358.42l26.958-26.959c4.746-4.745,12.438-4.745,17.184,0
			c4.744,4.745,4.744,12.438,0,17.183l-44.142,44.142v52.613l43.573-43.573c4.744-4.744,12.437-4.745,17.183,0
			c4.744,4.745,4.744,12.438,0,17.183L65.265,486.37h49.856l43.834-43.834c4.746-4.745,12.438-4.745,17.183,0
			s4.745,12.438,0.001,17.183L149.486,486.37z M365.292,430.126c-23.116,0-41.924-18.807-41.924-41.924s18.808-41.923,41.924-41.923
			s41.924,18.807,41.924,41.923S388.408,430.126,365.292,430.126z M365.292,370.579c-9.718,0-17.623,7.906-17.623,17.624
			s7.905,17.624,17.623,17.624s17.623-7.906,17.623-17.624S375.01,370.579,365.292,370.579z M421.866,294.804H308.151
			c-6.71,0-12.15-5.439-12.15-12.15V64.997c0-6.71,5.44-12.15,12.15-12.15h113.715c6.71,0,12.15,5.439,12.15,12.15v217.658
			C434.017,289.365,428.576,294.804,421.866,294.804z M320.302,270.504h89.414V77.146h-89.414V270.504z M201.127,294.804H87.412
			c-6.71,0-12.15-5.439-12.15-12.15V64.997c0-6.71,5.44-12.15,12.15-12.15h113.715c6.71,0,12.15,5.439,12.15,12.15v217.658
			C213.277,289.365,207.837,294.804,201.127,294.804z M99.563,270.504h89.414V77.146H99.563V270.504z"/>
	</g>
</g>
<g>
</g>
<g>
</g>
<g>
</g>
<g>
</g>
<g>
</g>
<g>
</g>
<g>
</g>
<g>
</g>
<g>
</g>
<g>
</g>
<g>
</g>
<g>
</g>
<g>
</g>
<g>
</g>
<g>
</g>
</svg>
