<?xml version="1.0" encoding="iso-8859-1"?>
<!-- Generator: Adobe Illustrator 19.0.0, SVG Export Plug-In . SVG Version: 6.00 Build 0)  -->
<svg version="1.1" id="Layer_1" xmlns="http://www.w3.org/2000/svg" xmlns:xlink="http://www.w3.org/1999/xlink" x="0px" y="0px"
	 viewBox="0 0 510.67 510.67" style="enable-background:new 0 0 510.67 510.67;" xml:space="preserve">
<g>
	<path style="fill:#FFD46A;" d="M366.481,251.22c16.902,0,30.652-13.75,30.652-30.652s-13.75-30.652-30.652-30.652
		s-30.653,13.75-30.653,30.652S349.579,251.22,366.481,251.22z"/>
	<path style="fill:#FFD46A;" d="M400.331,263.81c-9.338,7.326-21.088,11.711-33.85,11.711s-24.512-4.385-33.85-11.711
		c-21.719,2.087-38.76,20.434-38.76,42.69v34.173h145.22V306.5C439.091,284.244,422.05,265.897,400.331,263.81z"/>
	<path style="fill:#4CC7BB;" d="M102.322,330.238c4.744,4.745,4.744,12.438,0,17.184l-52.319,52.319h53.136l56.625-56.626
		c4.746-4.746,12.438-4.745,17.183-0.001c4.745,4.745,4.745,12.438,0.001,17.183l-39.444,39.444h359.831V130.999H35.266v160.194
		l36.837-36.837c4.746-4.744,12.438-4.744,17.184,0c4.744,4.745,4.744,12.438,0,17.184l-54.021,54.021v54.551l49.873-49.873
		C89.885,325.494,97.576,325.494,102.322,330.238z M269.57,306.5c0-29.855,19.577-55.212,46.564-63.941
		c-2.956-6.739-4.607-14.175-4.607-21.992c0-30.301,24.652-54.953,54.954-54.953c30.301,0,54.953,24.652,54.953,54.953
		c0,7.817-1.652,15.253-4.607,21.992c26.987,8.729,46.564,34.086,46.564,63.941v46.323c0,6.71-5.44,12.15-12.15,12.15h-169.52
		c-6.71,0-12.15-5.44-12.15-12.15V306.5H269.57z M86.435,208.461c-6.71,0-12.15-5.44-12.15-12.15s5.44-12.15,12.15-12.15h155.737
		c6.71,0,12.15,5.44,12.15,12.15s-5.44,12.15-12.15,12.15H86.435z"/>
	<g>
		<path d="M498.52,414.007H12.15c-6.71,0-12.15-5.44-12.15-12.15V108.813c0-6.71,5.439-12.15,12.15-12.15h486.37
			c6.71,0,12.15,5.44,12.15,12.15v293.043C510.67,408.566,505.229,414.007,498.52,414.007z M126.538,389.706h359.831V120.964H24.3
			v160.195l36.838-36.837c4.745-4.746,12.438-4.746,17.183,0c4.745,4.744,4.745,12.438,0,17.183L24.3,315.524v54.553l49.874-49.874
			c4.745-4.744,12.438-4.744,17.183,0c4.745,4.745,4.745,12.438,0,17.184l-52.32,52.319h53.137L148.8,333.08
			c4.745-4.746,12.438-4.745,17.183-0.001c4.745,4.745,4.745,12.438,0,17.184L126.538,389.706z M440.276,354.938h-169.52
			c-6.71,0-12.15-5.44-12.15-12.15v-46.323c0-29.851,19.566-55.217,46.547-63.949c-2.951-6.735-4.59-14.172-4.59-21.983
			c0-30.301,24.652-54.953,54.953-54.953c30.302,0,54.954,24.652,54.954,54.953c0,7.812-1.639,15.248-4.59,21.983
			c26.98,8.731,46.547,34.099,46.547,63.949v46.323C452.427,349.498,446.986,354.938,440.276,354.938z M282.906,330.638h145.22
			v-34.173c0-22.247-17.025-40.593-38.731-42.693c-9.341,7.335-21.108,11.714-33.879,11.714s-24.537-4.379-33.879-11.714
			c-21.705,2.101-38.73,20.446-38.73,42.693v34.173H282.906z M355.516,179.88c-16.902,0-30.652,13.75-30.652,30.652
			s13.75,30.652,30.652,30.652s30.653-13.75,30.653-30.652S372.418,179.88,355.516,179.88z M231.207,198.426H75.469
			c-6.71,0-12.15-5.44-12.15-12.15s5.439-12.15,12.15-12.15h155.737c6.71,0,12.15,5.44,12.15,12.15S237.917,198.426,231.207,198.426
			z"/>
	</g>
</g>
<g>
</g>
<g>
</g>
<g>
</g>
<g>
</g>
<g>
</g>
<g>
</g>
<g>
</g>
<g>
</g>
<g>
</g>
<g>
</g>
<g>
</g>
<g>
</g>
<g>
</g>
<g>
</g>
<g>
</g>
</svg>
