<?xml version="1.0" encoding="iso-8859-1"?>
<!-- Generator: Adobe Illustrator 19.0.0, SVG Export Plug-In . SVG Version: 6.00 Build 0)  -->
<svg version="1.1" id="Layer_1" xmlns="http://www.w3.org/2000/svg" xmlns:xlink="http://www.w3.org/1999/xlink" x="0px" y="0px"
	 viewBox="0 0 510.67 510.67" style="enable-background:new 0 0 510.67 510.67;" xml:space="preserve">
<g>
	<path style="fill:#FFD46A;" d="M211.912,228.428c4.744,4.745,4.744,12.438,0,17.183l-40.987,40.987
		c8.864,7.793,18.77,14.589,29.604,20.157c4.05,2.082,6.597,6.253,6.597,10.807v4.333l24.899-24.9
		c4.746-4.745,12.438-4.745,17.183,0s4.745,12.438,0.001,17.183l-42.083,42.083v20.784c0,13.603,11.066,24.67,24.669,24.67h69.011
		c13.603,0,24.669-11.067,24.669-24.67v-59.484c0-4.554,2.547-8.725,6.597-10.807c48.35-24.848,78.385-73.996,78.385-128.263
		c0-79.488-64.668-144.157-144.156-144.157S122.144,99.003,122.144,178.492c0,5.32,0.299,10.589,0.865,15.792l32.816-32.816
		c4.746-4.745,12.438-4.745,17.184,0c4.744,4.745,4.744,12.438,0,17.183l-43.995,43.995c5.425,16.939,13.942,32.659,25.077,46.421
		l40.639-40.639C199.475,223.683,207.166,223.683,211.912,228.428z"/>
	<rect x="217.518" y="473.36" style="fill:#4CC7BB;" width="97.564" height="23.045"/>
	<polygon style="fill:#4CC7BB;" points="231.795,426.015 217.518,426.015 217.518,449.06 315.082,449.06 315.082,426.015 
		300.806,426.015 	"/>
	<g>
		<path d="M308.018,510.67H202.652c-11.249,0-20.4-9.151-20.4-20.4v-78.19c0-4.103,1.217-7.926,3.31-11.129
			c-8.481-8.809-13.702-20.776-13.702-33.941v-52.251c-52.607-30.006-84.982-85.395-84.982-146.303
			C86.878,75.569,162.448,0,255.335,0s168.457,75.569,168.457,168.457c0,60.908-32.375,116.296-84.982,146.303v52.251
			c0,13.165-5.221,25.132-13.702,33.941c2.092,3.203,3.31,7.026,3.31,11.129v78.19C328.417,501.519,319.266,510.67,308.018,510.67z
			 M206.552,486.37h97.565v-23.045h-97.565V486.37z M206.552,439.025h97.565V415.98h-97.565V439.025z M220.83,391.68h69.011
			c13.603,0,24.669-11.067,24.669-24.67v-59.484c0-4.554,2.546-8.725,6.596-10.807c48.35-24.848,78.386-73.996,78.386-128.263
			c0-79.488-64.668-144.157-144.157-144.157S111.178,88.968,111.178,168.457c0,5.323,0.289,10.596,0.856,15.802l32.825-32.825
			c4.745-4.745,12.438-4.745,17.183,0s4.745,12.438,0,17.183l-43.995,43.995c5.425,16.938,13.936,32.667,25.071,46.428
			l40.646-40.646c4.745-4.745,12.438-4.745,17.183,0s4.745,12.438,0,17.183l-40.996,40.996c8.863,7.792,18.779,14.582,29.613,20.149
			c4.05,2.082,6.596,6.253,6.596,10.807v4.334l24.901-24.901c4.745-4.745,12.438-4.745,17.183,0s4.745,12.438,0,17.183
			l-42.083,42.084v20.784C196.16,380.613,207.227,391.68,220.83,391.68z"/>
	</g>
</g>
<g>
</g>
<g>
</g>
<g>
</g>
<g>
</g>
<g>
</g>
<g>
</g>
<g>
</g>
<g>
</g>
<g>
</g>
<g>
</g>
<g>
</g>
<g>
</g>
<g>
</g>
<g>
</g>
<g>
</g>
</svg>
