<?xml version="1.0" encoding="iso-8859-1"?>
<!-- Generator: Adobe Illustrator 19.0.0, SVG Export Plug-In . SVG Version: 6.00 Build 0)  -->
<svg version="1.1" id="Layer_1" xmlns="http://www.w3.org/2000/svg" xmlns:xlink="http://www.w3.org/1999/xlink" x="0px" y="0px"
	 viewBox="0 0 510.67 510.67" style="enable-background:new 0 0 510.67 510.67;" xml:space="preserve">
<g>
	<path style="fill:#FFD46A;" d="M258.052,207.44c4.744,4.745,4.744,12.438,0,17.183l-79.406,79.407h258.721
		c-6.685-17.885-27.757-35.018-59.158-47.46c-4.633-1.835-7.675-6.313-7.675-11.295V83.919c0-6.71,5.44-12.15,12.15-12.15h11.639
		c10.32,0,18.716-8.396,18.716-18.717s-8.396-18.717-18.716-18.717H138.278c-10.32,0-18.716,8.396-18.716,18.717
		c0,10.32,8.396,18.717,18.716,18.717h11.639c6.71,0,12.15,5.439,12.15,12.15v75.625l58.825-58.825
		c4.746-4.745,12.438-4.745,17.184,0c4.744,4.745,4.744,12.438,0,17.183l-76.009,76.009v51.365c0,4.982-3.043,9.46-7.675,11.295
		c-31.401,12.442-52.475,29.575-59.159,47.46h49.046l96.589-96.589C245.614,202.695,253.306,202.695,258.052,207.44z"/>
	<g>
		<path d="M255.335,510.67c-6.71,0-12.15-5.439-12.15-12.15V318.294H69.838c-6.71,0-12.15-5.439-12.15-12.15
			c0-31.138,25.065-59.641,69.114-78.998V86.031c-23.484-0.275-42.506-19.465-42.506-43.014C84.296,19.297,103.594,0,127.313,0
			h256.043c23.72,0,43.018,19.297,43.018,43.017c0,23.549-19.021,42.738-42.506,43.014v141.116
			c44.049,19.356,69.114,47.859,69.114,78.998c0,6.71-5.44,12.15-12.15,12.15H267.485V498.52
			C267.485,505.23,262.045,510.67,255.335,510.67z M255.335,293.995h171.066c-6.685-17.885-27.758-35.018-59.159-47.46
			c-4.632-1.835-7.675-6.313-7.675-11.295V73.884c0-6.71,5.44-12.15,12.15-12.15h11.639c10.32,0,18.717-8.396,18.717-18.717
			S393.677,24.3,383.356,24.3H127.313c-10.32,0-18.717,8.396-18.717,18.717c0,10.32,8.396,18.717,18.717,18.717h11.639
			c6.71,0,12.15,5.439,12.15,12.15v75.625l58.826-58.825c4.744-4.744,12.437-4.745,17.183,0c4.744,4.745,4.744,12.438,0,17.183
			l-76.009,76.008v51.366c0,4.982-3.043,9.46-7.675,11.295c-31.401,12.442-52.475,29.575-59.159,47.46h49.046l96.589-96.589
			c4.746-4.744,12.438-4.745,17.184,0c4.744,4.745,4.744,12.438-0.001,17.183l-79.406,79.407h87.655V293.995z"/>
	</g>
</g>
<g>
</g>
<g>
</g>
<g>
</g>
<g>
</g>
<g>
</g>
<g>
</g>
<g>
</g>
<g>
</g>
<g>
</g>
<g>
</g>
<g>
</g>
<g>
</g>
<g>
</g>
<g>
</g>
<g>
</g>
</svg>
